<svg id="Layer_1" data-name="Layer 1" xmlns="http://www.w3.org/2000/svg" viewBox="0 0 1080 1080"><defs><style>.cls-1{fill:#fff;}.cls-2{fill:#d00023;}.cls-3{fill:#181b1b;}</style></defs><circle class="cls-1" cx="540" cy="540" r="500"/><g id="夢"><path class="cls-2" d="M317.5,597.14v76.79h92.74v12.5H316.79V852.5h76.78V763.21H763.21V597.14Zm368.93,89.29H487v-12.5H686.43Z"/><polygon class="cls-3" points="852.5 507.86 852.5 852.5 406.07 852.5 406.07 775.71 775.71 775.71 775.71 584.64 304.29 584.64 304.29 852.5 227.5 852.5 227.5 507.86 852.5 507.86"/><path class="cls-3" d="M852.5,316.79V240H669.76V227.5H593V240H487V227.5H410.24V240H227.5v76.79H410.24v12.5H227.5V495.36h625V329.29H669.76v-12.5ZM304.29,418.57v-12.5h106v12.5Zm182.73,0v-12.5H593v12.5Zm288.69-12.5v12.5h-106v-12.5ZM593,329.29H487v-12.5H593Z"/></g></svg>