<svg id="Layer_1" data-name="Layer 1" xmlns="http://www.w3.org/2000/svg" viewBox="0 0 1080 250"><defs><style>.cls-1{fill:#ff0;}.cls-2{fill:#fff;}</style></defs><circle cx="147.79" cy="125" r="100"/><g id="夢"><path class="cls-1" d="M103.29,136.43v15.36h18.55v2.5H103.15V187.5H118.5V169.64h73.93V136.43Zm73.78,17.86H137.19v-2.5h39.88Z"/><polygon class="cls-2" points="210.29 118.57 210.29 187.5 121 187.5 121 172.14 194.93 172.14 194.93 133.93 100.65 133.93 100.65 187.5 85.29 187.5 85.29 118.57 210.29 118.57"/><path class="cls-2" d="M210.29,80.36V65H173.74V62.5H158.38V65H137.19V62.5H121.84V65H85.29V80.36h36.55v2.5H85.29v33.21h125V82.86H173.74v-2.5ZM100.65,100.71v-2.5h21.19v2.5Zm36.54,0v-2.5h21.19v2.5Zm57.74-2.5v2.5H173.74v-2.5ZM158.38,82.86H137.19v-2.5h21.19Z"/></g><path d="M333.41,199.9V124.74H301.27V199.9h-22V50.1h22v53.39h32.14V50.1h21.77V199.9Z"/><path d="M426,199.9V124.74H393.9V199.9h-22V50.1h22v53.39h15.29V50.1h22.55v53.39H447.8V199.9Z"/><path d="M515.16,50.1V178.91H547V50.1h22V178.91H601.2V50.1h22V199.9H492.87V50.1Z"/><path d="M639.67,199.9V95.71H715.6V199.9Zm54.16-21v-62.2H661.7v62.2Z"/><path d="M786.46,138V116.71H754.32V199.9h-22V95.71h75.93V138Z"/><path d="M824.92,199.9V95.71h54.17V50.1h21.77V199.9Zm54.17-83.19H847v62.2h32.14Z"/><path d="M917.55,76.8V50.1h22V76.8Zm0,123.1V95.71h22V199.9Z"/><path d="M956.28,199.9V95.71h75.93v58.58H978.3v24.62h53.91v21Zm54.16-83.19H978.3v16.84h32.14Z"/></svg>