<svg id="Layer_1" data-name="Layer 1" xmlns="http://www.w3.org/2000/svg" xmlns:xlink="http://www.w3.org/1999/xlink" viewBox="0 0 1080 600"><defs><style>.cls-1,.cls-4{fill:none;}.cls-2{fill:#d00023;}.cls-3{clip-path:url(#clip-path);}.cls-4{stroke:#000;stroke-miterlimit:10;stroke-width:30px;}.cls-5{clip-path:url(#clip-path-2);}.cls-6{clip-path:url(#clip-path-3);}</style><clipPath id="clip-path"><circle class="cls-1" cx="183.6" cy="300" r="112.5"/></clipPath><clipPath id="clip-path-2"><circle class="cls-1" cx="540" cy="300" r="112.5"/></clipPath><clipPath id="clip-path-3"><circle class="cls-1" cx="896.4" cy="300" r="112.5"/></clipPath></defs><rect class="cls-2" width="1080" height="600"/><g class="cls-3"><polygon points="270.39 213.21 270.39 386.79 250.55 386.79 250.55 233.05 116.65 233.05 116.65 386.79 96.81 386.79 96.81 213.21 270.39 213.21"/><polygon points="193.52 257.85 193.52 262.81 245.59 262.81 245.59 282.64 121.61 282.64 121.61 262.81 173.68 262.81 173.68 257.85 121.61 257.85 121.61 238.01 173.68 238.01 173.68 233.05 193.52 233.05 193.52 238.01 245.59 238.01 245.59 257.85 193.52 257.85"/><path d="M121.61,287.6v44.63h39.67v5H121.61v44.64h124V337.19H205.92v-5h39.67V287.6Zm104.14,24.8H186.08V357h39.67v5h-84.3v-5h39.67V312.4H141.45v-5h84.3Z"/></g><circle class="cls-4" cx="183.6" cy="300" r="135"/><g class="cls-5"><polygon points="567.28 213.21 567.28 262.81 537.52 262.81 537.52 267.76 567.28 267.76 567.28 386.79 512.72 386.79 512.72 297.52 537.52 297.52 537.52 361.99 542.48 361.99 542.48 292.56 512.72 292.56 512.72 242.97 542.48 242.97 542.48 238.01 512.72 238.01 512.72 213.21 567.28 213.21"/><polygon points="626.79 213.21 626.79 262.81 601.99 262.81 601.99 238.01 597.03 238.01 597.03 357.03 601.99 357.03 601.99 267.76 626.79 267.76 626.79 386.79 601.99 386.79 601.99 381.83 572.24 381.83 572.24 213.21 626.79 213.21"/><rect x="430.9" y="235.53" width="69.43" height="24.8" transform="translate(217.68 713.54) rotate(-90)"/><rect x="460.65" y="339.67" width="69.43" height="24.8" transform="translate(143.3 847.44) rotate(-90)"/><polygon points="507.76 213.21 507.76 312.4 478.01 312.4 478.01 386.79 453.21 386.79 453.21 287.6 482.97 287.6 482.97 213.21 507.76 213.21"/></g><circle class="cls-4" cx="540" cy="300" r="135"/><g class="cls-6"><polygon points="893.92 213.21 893.92 386.79 814.57 386.79 814.57 332.24 839.37 332.24 839.37 327.28 814.57 327.28 814.57 302.48 864.16 302.48 864.16 357.03 839.37 357.03 839.37 361.99 869.12 361.99 869.12 238.01 809.61 238.01 809.61 213.21 893.92 213.21"/><rect x="814.57" y="242.97" width="49.59" height="24.8"/><rect x="814.57" y="272.72" width="49.59" height="24.8"/><polygon points="983.19 213.21 983.19 386.79 903.84 386.79 903.84 332.24 928.63 332.24 928.63 327.28 903.84 327.28 903.84 302.48 953.43 302.48 953.43 357.03 928.63 357.03 928.63 361.99 958.39 361.99 958.39 238.01 898.88 238.01 898.88 213.21 983.19 213.21"/><rect x="903.84" y="242.97" width="49.59" height="24.8"/><rect x="903.84" y="272.72" width="49.59" height="24.8"/></g><circle class="cls-4" cx="896.4" cy="300" r="135"/></svg>